<svg width="428" height="100" viewBox="0 0 428 147" fill="none" xmlns="http://www.w3.org/2000/svg">
<g clip-path="url(#clip0_8_9)">
<path fill-rule="evenodd" clip-rule="evenodd" d="M349.931 7.86057C378.807 8.36334 407.683 8.86536 436.56 9.36813C413.904 14.8609 394.32 24.9118 377.806 39.5192C368.207 49.6289 364.633 61.1873 367.085 74.193C367.521 76.9797 368.092 79.7438 368.8 82.4846C347.915 81.4059 327.043 81.5318 306.187 82.8614C296.898 83.7192 287.749 85.2268 278.74 87.3841C273.194 88.6256 268.048 90.51 263.301 93.0374C249.524 98.733 238.517 107.276 230.279 118.666C226.557 124.865 223.269 131.146 220.416 137.51C216.22 123.846 207.928 112.539 195.542 103.59C188.251 97.4576 179.673 93.1859 169.81 90.7761C162.515 87.9035 154.795 86.019 146.652 85.1228C122.024 82.0398 97.4356 80.9092 72.8887 81.7308C72.8887 80.4742 72.8887 79.2184 72.8887 77.9619C73.5474 77.3868 73.9762 76.633 74.1752 75.7006C75.3623 67.6954 74.5046 59.9059 71.6021 52.3335C63.8286 38.969 52.5354 28.542 37.7223 21.0517C28.5202 16.128 18.7994 12.234 8.56 9.36813C55.875 8.6151 103.335 8.3641 150.941 8.61435C151.47 8.69802 151.899 8.94903 152.227 9.36813C153.884 14.7395 155.885 20.016 158.231 25.1975C160.632 29.9651 164.777 32.8551 170.668 33.8659C175.728 35.1828 180.874 36.0617 186.107 36.5041C189.171 37.5617 192.458 38.0637 195.971 38.0117C198.953 38.1413 201.669 37.6393 204.119 36.5041C205.063 35.1647 205.778 33.6571 206.263 31.9815C207.408 25.9218 208.552 19.8916 209.694 13.8908C210.653 17.8918 211.94 21.7866 213.554 25.5743C218.693 25.9505 223.839 26.0764 228.993 25.9512C230.116 22.5019 230.974 18.9841 231.566 15.3983C232.185 15.7134 232.614 16.2154 232.853 16.9059C233.71 21.9313 234.568 26.956 235.426 31.9815C237.466 37.784 241.898 39.6685 248.72 37.6348C251.501 37.3288 254.074 36.7009 256.44 35.7503C265.375 35.2333 273.667 32.9719 281.314 28.9663C285.242 22.8819 287.815 16.3489 289.033 9.36813C289.71 9.15481 290.282 8.77792 290.748 8.23746C310.474 7.86057 330.202 7.73469 349.931 7.86057Z" fill="#09090b"/>
<path d="M165.004 55.2439C165.836 55.2439 166.596 55.4199 167.284 55.7719C167.988 56.1079 168.54 56.5879 168.94 57.2119C169.356 57.8359 169.564 58.5319 169.564 59.2999C169.564 61.3319 168.644 62.6119 166.804 63.1399V63.2359C168.9 63.7159 169.948 65.0919 169.948 67.3639C169.948 68.2279 169.732 68.9959 169.3 69.6679C168.884 70.3239 168.308 70.8359 167.572 71.2039C166.836 71.5719 166.028 71.7559 165.148 71.7559H154.012V55.2439H165.004ZM159.316 61.6759H162.964C163.316 61.6759 163.604 61.5559 163.828 61.3159C164.068 61.0599 164.188 60.7479 164.188 60.3799V60.1399C164.188 59.7879 164.068 59.4919 163.828 59.2519C163.588 58.9959 163.3 58.8679 162.964 58.8679H159.316V61.6759ZM159.316 67.9159H163.348C163.7 67.9159 163.988 67.7959 164.212 67.5559C164.452 67.2999 164.572 66.9879 164.572 66.6199V66.3799C164.572 66.0119 164.452 65.7079 164.212 65.4679C163.988 65.2119 163.7 65.0839 163.348 65.0839H159.316V67.9159ZM183.357 71.7559L182.661 69.4279H176.877L176.181 71.7559H170.757L176.781 55.2439H182.949L188.973 71.7559H183.357ZM177.981 65.7319H181.557L179.829 59.8519H179.733L177.981 65.7319ZM198.813 59.4679V71.7559H193.509V59.4679H188.085V55.2439H204.213V59.4679H198.813ZM214.621 55.2439H219.925V67.5319H228.397V71.7559H214.621V55.2439ZM241.693 71.7559L240.997 69.4279H235.213L234.517 71.7559H229.093L235.117 55.2439H241.285L247.309 71.7559H241.693ZM236.317 65.7319H239.893L238.165 59.8519H238.069L236.317 65.7319ZM261.117 71.7559L254.181 63.7399V71.7559H249.309V55.2439H253.941L260.877 63.3799V55.2439H265.749V71.7559H261.117ZM277.605 54.9559C279.189 54.9559 280.613 55.1959 281.877 55.6759C283.141 56.1559 284.141 56.8679 284.877 57.8119C285.629 58.7399 286.005 59.8759 286.005 61.2199H280.941C280.941 60.5319 280.637 59.9799 280.029 59.5639C279.421 59.1319 278.685 58.9159 277.821 58.9159C276.573 58.9159 275.629 59.2519 274.989 59.9239C274.349 60.5799 274.029 61.5159 274.029 62.7319V64.2679C274.029 65.4839 274.349 66.4279 274.989 67.0999C275.629 67.7559 276.573 68.0839 277.821 68.0839C278.685 68.0839 279.421 67.8839 280.029 67.4839C280.637 67.0679 280.941 66.5399 280.941 65.8999H277.197V62.5399H286.005V71.7559H283.269L282.741 70.1239C281.237 71.4039 279.269 72.0439 276.837 72.0439C274.101 72.0439 272.045 71.3319 270.669 69.9079C269.293 68.4679 268.605 66.3319 268.605 63.4999C268.605 60.6999 269.381 58.5799 270.933 57.1399C272.501 55.6839 274.725 54.9559 277.605 54.9559Z" fill="#7A0814"/>
</g>
<defs>
<clipPath id="clip0_8_9">
<rect width="428" height="147" fill="white"/>
</clipPath>
</defs>
</svg>
